<svg width="1312" height="474" viewBox="0 0 1312 474" fill="none" xmlns="http://www.w3.org/2000/svg">
<path d="M623.06 363.07C612.207 363.07 603.203 361.59 596.05 358.63C588.897 355.67 583.223 351.23 579.03 345.31C574.837 339.39 571.877 332.113 570.15 323.48C568.423 314.6 567.56 304.363 567.56 292.77V130.34H517.98V104.44H597.9V292.77C597.9 301.403 598.393 308.433 599.38 313.86C600.613 319.287 602.34 323.727 604.56 327.18C607.027 330.387 609.987 332.607 613.44 333.84C616.893 335.073 620.963 335.69 625.65 335.69C632.803 335.69 639.463 334.827 645.63 333.1C651.797 331.373 656.607 329.523 660.06 327.55L664.5 353.45C663.02 354.19 660.923 355.177 658.21 356.41C655.497 357.397 652.29 358.383 648.59 359.37C644.89 360.357 640.82 361.22 636.38 361.96C632.187 362.7 627.747 363.07 623.06 363.07ZM749.6 337.17C757.247 337.17 764.03 336.923 769.95 336.43C776.117 335.937 781.173 335.32 785.12 334.58V283.52C781.173 282.287 776.363 281.3 770.69 280.56C765.263 279.82 759.467 279.45 753.3 279.45C747.627 279.45 742.077 279.943 736.65 280.93C731.223 281.67 726.413 283.15 722.22 285.37C718.027 287.59 714.573 290.55 711.86 294.25C709.147 297.703 707.79 302.143 707.79 307.57C707.79 318.67 711.49 326.44 718.89 330.88C726.537 335.073 736.773 337.17 749.6 337.17ZM746.64 183.25C759.467 183.25 770.197 184.853 778.83 188.06C787.71 191.267 794.863 195.707 800.29 201.38C805.717 207.053 809.54 213.96 811.76 222.1C813.98 230.24 815.09 239.12 815.09 248.74V356.04C807.937 357.273 798.44 358.753 786.6 360.48C775.007 362.207 763.043 363.07 750.71 363.07C741.337 363.07 732.21 362.207 723.33 360.48C714.45 359 706.557 356.287 699.65 352.34C692.743 348.147 687.193 342.473 683 335.32C678.807 328.167 676.71 319.04 676.71 307.94C676.71 298.073 678.807 289.81 683 283.15C687.44 276.243 692.99 270.693 699.65 266.5C706.557 262.307 714.327 259.347 722.96 257.62C731.84 255.647 740.72 254.66 749.6 254.66C761.687 254.66 773.527 256.017 785.12 258.73V250.22C785.12 245.04 784.503 240.107 783.27 235.42C782.283 230.487 780.187 226.047 776.98 222.1C774.02 218.153 769.827 215.07 764.4 212.85C759.22 210.383 752.437 209.15 744.05 209.15C733.443 209.15 724.193 209.89 716.3 211.37C708.407 212.85 702.363 214.33 698.17 215.81L694.47 190.65C698.663 188.677 705.57 186.95 715.19 185.47C725.057 183.99 735.54 183.25 746.64 183.25ZM902.41 187.32H974.93V212.85H902.41V292.77C902.41 301.403 903.027 308.433 904.26 313.86C905.493 319.287 907.467 323.727 910.18 327.18C913.14 330.387 916.84 332.607 921.28 333.84C925.72 335.073 931.147 335.69 937.56 335.69C946.44 335.69 953.593 334.95 959.02 333.47C964.447 331.99 969.627 330.017 974.56 327.55L979 353.45C975.547 354.93 969.997 356.903 962.35 359.37C954.95 361.837 945.7 363.07 934.6 363.07C921.773 363.07 911.29 361.59 903.15 358.63C895.01 355.67 888.597 351.23 883.91 345.31C879.47 339.39 876.387 332.113 874.66 323.48C872.933 314.6 872.07 304.363 872.07 292.77V212.85H835.81V187.32H872.07V139.22L902.41 134.04V187.32ZM983.07 279.82C987.263 269.953 992.937 258.607 1000.09 245.78C1007.49 232.953 1015.75 219.757 1024.88 206.19C1034.01 192.377 1043.75 178.933 1054.11 165.86C1064.47 152.54 1074.95 140.577 1085.56 129.97H1115.16V275.38H1142.17V300.54H1115.16V359H1085.56V300.54H983.07V279.82ZM1085.56 166.23C1078.9 173.383 1072.12 181.277 1065.21 189.91C1058.55 198.543 1052.01 207.67 1045.6 217.29C1039.19 226.663 1033.14 236.283 1027.47 246.15C1022.04 256.017 1017.11 265.76 1012.67 275.38H1085.56V166.23ZM1293.13 299.43C1293.13 318.67 1286.96 334.21 1274.63 346.05C1262.54 357.89 1244.04 363.81 1219.13 363.81C1204.82 363.81 1192.98 361.96 1183.61 358.26C1174.24 354.313 1166.71 349.38 1161.04 343.46C1155.61 337.293 1151.67 330.51 1149.2 323.11C1146.98 315.71 1145.87 308.433 1145.87 301.28C1145.87 288.207 1149.45 276.613 1156.6 266.5C1163.75 256.387 1172.26 248.247 1182.13 242.08C1161.16 230.24 1150.68 212.11 1150.68 187.69C1150.68 179.303 1152.28 171.287 1155.49 163.64C1158.7 155.993 1163.26 149.333 1169.18 143.66C1175.1 137.987 1182.25 133.423 1190.64 129.97C1199.27 126.517 1208.89 124.79 1219.5 124.79C1231.83 124.79 1242.32 126.64 1250.95 130.34C1259.83 134.04 1266.98 138.85 1272.41 144.77C1277.84 150.443 1281.78 156.857 1284.25 164.01C1286.72 170.917 1287.95 177.7 1287.95 184.36C1287.95 197.433 1284.62 208.78 1277.96 218.4C1271.3 227.773 1263.65 235.297 1255.02 240.97C1280.43 253.057 1293.13 272.543 1293.13 299.43ZM1175.47 301.65C1175.47 305.597 1176.21 309.79 1177.69 314.23C1179.17 318.423 1181.64 322.37 1185.09 326.07C1188.54 329.77 1193.11 332.853 1198.78 335.32C1204.45 337.54 1211.36 338.65 1219.5 338.65C1227.15 338.65 1233.68 337.663 1239.11 335.69C1244.78 333.47 1249.35 330.633 1252.8 327.18C1256.5 323.48 1259.21 319.41 1260.94 314.97C1262.67 310.53 1263.53 306.09 1263.53 301.65C1263.53 287.59 1258.47 276.86 1248.36 269.46C1238.25 261.813 1224.31 256.017 1206.55 252.07C1196.68 257.497 1189.04 264.28 1183.61 272.42C1178.18 280.56 1175.47 290.303 1175.47 301.65ZM1258.35 184.36C1258.35 181.153 1257.61 177.577 1256.13 173.63C1254.65 169.437 1252.31 165.737 1249.1 162.53C1246.14 159.077 1242.19 156.24 1237.26 154.02C1232.33 151.553 1226.41 150.32 1219.5 150.32C1212.35 150.32 1206.3 151.43 1201.37 153.65C1196.68 155.87 1192.74 158.707 1189.53 162.16C1186.32 165.367 1183.98 169.067 1182.5 173.26C1181.27 177.207 1180.65 181.153 1180.65 185.1C1180.65 195.213 1184.23 204.71 1191.38 213.59C1198.78 222.223 1210.87 228.513 1227.64 232.46C1237.01 227.033 1244.41 220.62 1249.84 213.22C1255.51 205.82 1258.35 196.2 1258.35 184.36Z" fill="#374151"/>
<line x1="34.5446" y1="47.4621" x2="511.416" y2="254.812" stroke="#374151" stroke-width="23" stroke-dasharray="34 34"/>
<rect x="149.51" y="15.1318" width="337" height="337" rx="13.5" transform="rotate(23.5 149.51 15.1318)" stroke="#374151" stroke-width="23"/>
</svg>
